<svg xmlns="http://www.w3.org/2000/svg" style="display: none;">
    <!-- burger-icon -->
    <symbol id="burger-icon" viewBox="0 0 32 32">
        <path stroke-linejoin="round" stroke-linecap="round" stroke-miterlimit="4" stroke-width="2.6667" d="M5.333  8h21.333"></path>
        <path stroke-linejoin="round" stroke-linecap="round" stroke-miterlimit="4" stroke-width="2.6667" d="M5.333  16h21.333"></path>
        <path stroke-linejoin="round" stroke-linecap="round" stroke-miterlimit="4" stroke-width="2.6667" d="M5.333  24h21.333"></path>
    </symbol>

    <!-- close-icon -->
    <symbol id="icon-exit" viewBox="0 0 32 32">
        <path d="M31.708 25.708c-0-0-0-0-0-0l-9.708-9.708 9.708-9.708c0-0 0-0 0-0 0.105-0.105 0.18-0.227 0.229-0.357 0.133-0.356 0.057-0.771-0.229-1.057l-4.586-4.586c-0.286-0.286-0.702-0.361-1.057-0.229-0.13 0.048-0.252 0.124-0.357 0.228 0 0-0 0-0 0l-9.708 9.708-9.708-9.708c-0-0-0-0-0-0-0.105-0.104-0.227-0.18-0.357-0.228-0.356-0.133-0.771-0.057-1.057 0.229l-4.586 4.586c-0.286 0.286-0.361 0.702-0.229 1.057 0.049 0.13 0.124 0.252 0.229 0.357 0 0 0 0 0 0l9.708 9.708-9.708 9.708c-0 0-0 0-0 0-0.104 0.105-0.18 0.227-0.229 0.357-0.133 0.355-0.057 0.771 0.229 1.057l4.586 4.586c0.286 0.286 0.702 0.361 1.057 0.229 0.13-0.049 0.252-0.124 0.357-0.229 0-0 0-0 0-0l9.708-9.708 9.708 9.708c0 0 0 0 0 0 0.105 0.105 0.227 0.18 0.357 0.229 0.356 0.133 0.771 0.057 1.057-0.229l4.586-4.586c0.286-0.286 0.362-0.702 0.229-1.057-0.049-0.13-0.124-0.252-0.229-0.357z"></path>
    </symbol>

    <!-- icon-instagram -->
    <symbol id="icon-instagram" viewBox="0 0 24 24">
        <path d="M7 1c-1.657 0-3.158 0.673-4.243 1.757s-1.757 2.586-1.757 4.243v10c0 1.657 0.673 3.158 1.757 4.243s2.586 1.757 4.243 1.757h10c1.657 0 3.158-0.673 4.243-1.757s1.757-2.586 1.757-4.243v-10c0-1.657-0.673-3.158-1.757-4.243s-2.586-1.757-4.243-1.757zM7 3h10c1.105 0 2.103 0.447 2.828 1.172s1.172 1.723 1.172 2.828v10c0 1.105-0.447 2.103-1.172 2.828s-1.723 1.172-2.828 1.172h-10c-1.105 0-2.103-0.447-2.828-1.172s-1.172-1.723-1.172-2.828v-10c0-1.105 0.447-2.103 1.172-2.828s1.723-1.172 2.828-1.172zM16.989 11.223c-0.15-0.972-0.571-1.857-1.194-2.567-0.754-0.861-1.804-1.465-3.009-1.644-0.464-0.074-0.97-0.077-1.477-0.002-1.366 0.202-2.521 0.941-3.282 1.967s-1.133 2.347-0.93 3.712 0.941 2.521 1.967 3.282 2.347 1.133 3.712 0.93 2.521-0.941 3.282-1.967 1.133-2.347 0.93-3.712zM15.011 11.517c0.122 0.82-0.1 1.609-0.558 2.227s-1.15 1.059-1.969 1.18-1.609-0.1-2.227-0.558-1.059-1.15-1.18-1.969 0.1-1.609 0.558-2.227 1.15-1.059 1.969-1.18c0.313-0.046 0.615-0.042 0.87-0.002 0.74 0.11 1.366 0.47 1.818 0.986 0.375 0.428 0.63 0.963 0.72 1.543zM17.5 7.5c0.552 0 1-0.448 1-1s-0.448-1-1-1-1 0.448-1 1 0.448 1 1 1z"></path>
    </symbol>

    <!-- icon-telegram -->
    <symbol id="icon-telegram" viewBox="0 0 28 28">
        <path d="M18.578 20.422l2.297-10.828c0.203-0.953-0.344-1.328-0.969-1.094l-13.5 5.203c-0.922 0.359-0.906 0.875-0.156 1.109l3.453 1.078 8.016-5.047c0.375-0.25 0.719-0.109 0.438 0.141l-6.484 5.859-0.25 3.563c0.359 0 0.516-0.156 0.703-0.344l1.687-1.625 3.5 2.578c0.641 0.359 1.094 0.172 1.266-0.594zM28 14c0 7.734-6.266 14-14 14s-14-6.266-14-14 6.266-14 14-14 14 6.266 14 14z"></path>
    </symbol>

    <symbol id="icon-mail" viewBox="0 0 32 32">
        <path d="M28 5h-24c-2.209 0-4 1.792-4 4v13c0 2.209 1.791 4 4 4h24c2.209 0 4-1.791 4-4v-13c0-2.208-1.791-4-4-4zM2 10.25l6.999 5.25-6.999 5.25v-10.5zM30 22c0 1.104-0.898 2-2 2h-24c-1.103 0-2-0.896-2-2l7.832-5.875 4.368 3.277c0.533 0.398 1.166 0.6 1.8 0.6 0.633 0 1.266-0.201 1.799-0.6l4.369-3.277 7.832 5.875zM30 20.75l-7-5.25 7-5.25v10.5zM17.199 18.602c-0.349 0.262-0.763 0.4-1.199 0.4s-0.851-0.139-1.2-0.4l-12.8-9.602c0-1.103 0.897-2 2-2h24c1.102 0 2 0.897 2 2l-12.801 9.602z"></path>
    </symbol>
</svg>